<?xml version="1.0" encoding="UTF-8"?>
<svg viewBox="0 0 20.76 18.246" xmlns="http://www.w3.org/2000/svg">
<g transform="translate(0 -31)" fill="#fff" data-name="Group 1079">
<path d="M6.731,43.164H17.719a.606.606,0,0,0,.584-.441l2.433-8.515a.607.607,0,0,0-.585-.775H5.327l-.435-1.956A.608.608,0,0,0,4.3,31H.608a.608.608,0,1,0,0,1.216h3.2l2.2,9.883a1.823,1.823,0,0,0,.725,3.5H17.719a.608.608,0,1,0,0-1.216H6.731a.608.608,0,1,1,0-1.216Z" data-name="Path 271"/>
<path transform="translate(-144.88 -345.41)" d="m151 392.83a1.825 1.825 0 1 0 1.825-1.829 1.827 1.827 0 0 0-1.825 1.829z" data-name="Path 272"/>
<path transform="translate(-347.33 -345.41)" d="m362 392.83a1.825 1.825 0 1 0 1.829-1.829 1.827 1.827 0 0 0-1.829 1.829z" data-name="Path 273"/>
</g>
</svg>
