<?xml version="1.0" encoding="UTF-8"?>
<svg viewBox="0 0 30 39.385" xmlns="http://www.w3.org/2000/svg">
<g transform="translate(-61)" fill="#cd9925">
<path transform="translate(0)" d="M90.662,9.569,81.431.338A1.155,1.155,0,0,0,80.615,0H64.462A3.465,3.465,0,0,0,61,3.462V35.923a3.465,3.465,0,0,0,3.462,3.462H87.538A3.465,3.465,0,0,0,91,35.923V10.385A1.164,1.164,0,0,0,90.662,9.569ZM81.769,3.939l5.291,5.291H82.923a1.155,1.155,0,0,1-1.154-1.154Zm5.769,33.137H64.462a1.155,1.155,0,0,1-1.154-1.154V3.462a1.155,1.155,0,0,1,1.154-1.154h15V8.077a3.465,3.465,0,0,0,3.462,3.462h5.769V35.923A1.155,1.155,0,0,1,87.538,37.077Z" data-name="Path 264"/>
<path transform="translate(-83.077 -195.69)" d="M166,212H152.154a1.154,1.154,0,0,0,0,2.308H166A1.154,1.154,0,0,0,166,212Z" data-name="Path 265"/>
<path transform="translate(-83.077 -251.08)" d="M166,272H152.154a1.154,1.154,0,0,0,0,2.308H166A1.154,1.154,0,0,0,166,272Z" data-name="Path 266"/>
<path transform="translate(-83.077 -306.46)" d="M166,332H152.154a1.154,1.154,0,0,0,0,2.308H166A1.154,1.154,0,0,0,166,332Z" data-name="Path 267"/>
<path transform="translate(-83.077 -361.85)" d="m161.38 392h-9.231a1.154 1.154 0 0 0 0 2.308h9.231a1.154 1.154 0 1 0 0-2.308z" data-name="Path 268"/>
</g>
</svg>
