<?xml version="1.0" encoding="UTF-8"?>
<svg viewBox="0 0 15.681 15.681" xmlns="http://www.w3.org/2000/svg">
<g transform="translate(-2 -2)" fill="#fff">
<path transform="translate(0 -2.591)" d="M16.9,14a.741.741,0,0,0-.784.784V17.92a.741.741,0,0,1-.784.784H4.352a.741.741,0,0,1-.784-.784V14.784A.741.741,0,0,0,2.784,14,.741.741,0,0,0,2,14.784V17.92a2.31,2.31,0,0,0,2.352,2.352H15.329a2.31,2.31,0,0,0,2.352-2.352V14.784A.741.741,0,0,0,16.9,14Z" data-name="Path 269"/>
<path transform="translate(-.864)" d="M10.155,12.741c.078.078.157.157.235.157a.666.666,0,0,0,.627,0c.078-.078.157-.078.235-.157l3.92-3.92a.776.776,0,1,0-1.1-1.1l-2.587,2.587V2.784a.784.784,0,0,0-1.568,0v7.527L7.333,7.724a.776.776,0,1,0-1.1,1.1Z" data-name="Path 270"/>
</g>
</svg>
