<svg xmlns="http://www.w3.org/2000/svg" width="23.508" height="17.906" viewBox="0 0 23.508 17.906">
  <path id="Path_262" data-name="Path 262" d="M21.442,61H2.066A2.07,2.07,0,0,0,0,63.066V76.84a2.069,2.069,0,0,0,2.066,2.066H21.442a2.069,2.069,0,0,0,2.066-2.066V63.066A2.069,2.069,0,0,0,21.442,61Zm-.285,1.377L11.8,71.736l-9.44-9.359ZM1.377,76.555V63.345l6.634,6.577Zm.974.974,6.638-6.638L11.315,73.2a.689.689,0,0,0,.972,0l2.268-2.268,6.6,6.6Zm19.779-.974-6.6-6.6,6.6-6.6Z" transform="translate(0 -61)" fill="#fff"/>
</svg>
