<?xml version="1.0" encoding="UTF-8"?>
<svg enable-background="new 0 0 322 308" version="1.1" viewBox="0 0 322 308" xml:space="preserve" xmlns="http://www.w3.org/2000/svg">
<style type="text/css">
	.st0{fill:#424B53;}
</style>

	<path class="st0" d="m50.2 254.1h-2.3c-2 0.1-8.7 0.2-10.6-3.3-1.6-2.8-0.1-7.2 1.6-10.1l21.7-36.8 20.6-36.1 16 8.7 0.1-74-62.7 39.8 14.7 8-20.2 35.2-21.5 36.7c-8.9 15-9.7 32.2-2.3 45.9 7.7 14.2 22.9 22.4 40.9 22.4 1 0 2.1 0 3.2-0.1l72.1-0.2v-36.4h-5c-22.1 0.1-41.9 0.2-66.3 0.3"/>
	<path class="st0" d="m116.9 103.3c11.4-19.6 21.4-37.1 34-58.9l0.3-0.6c0.9-1.8 4.1-7.5 8.1-7.5h0.1c3.2 0.1 6.3 3.6 8 6.5l20.8 37.2 20.8 35.9-15.6 9.5 63.9 37.3-2.9-74.3-14.3 8.7-20.3-35.1-20.8-37c-8.5-15.2-23-24.6-38.6-25-17.1-0.5-32.6 9.6-41.4 26.9l-36.1 62.4 31.5 18.3 2.5-4.3z"/>
	<path class="st0" d="m313.7 222.4-35.4-62.7-31.7 17.9 2.5 4.3c10.8 19.1 20.5 36.2 32.3 57.1l1.3 2.3 0.2 0.3c1.1 1.7 4.5 7.5 2.3 10.9-1.7 2.7-6.2 3.6-9.6 3.6l-42.7-0.8-41.5-0.3-0.2-18.2-64.6 36.2 65.4 35-0.2-16.7 40.6 0.3 42.4 0.9c17.5 0.4 32.8-7.3 41.1-20.6 9.1-14.4 8.3-32.9-2.2-49.5"/>

</svg>
