<?xml version="1.0" encoding="UTF-8"?>
<svg viewBox="0 0 28.346 20.615" xmlns="http://www.w3.org/2000/svg">
<g transform="translate(0 -64)" data-name="Group 1083">
<g transform="translate(0 64)" data-name="Group 1082">
<path transform="translate(0 -64)" d="M24.48,69.154H20.615V64H2.577A2.576,2.576,0,0,0,0,66.577V80.75H2.577a3.865,3.865,0,1,0,7.731,0h7.731a3.865,3.865,0,1,0,7.731,0h2.577V74.307ZM6.442,82.682A1.933,1.933,0,1,1,8.375,80.75,1.93,1.93,0,0,1,6.442,82.682Zm15.461,0a1.933,1.933,0,1,1,1.933-1.933A1.93,1.93,0,0,1,21.9,82.682Zm-1.288-8.375V71.086h3.221l2.532,3.221Z" fill="#fff" data-name="Path 275"/>
</g>
</g>
</svg>
