<?xml version="1.0" encoding="UTF-8"?>
<svg viewBox="0 0 113.6 74.259" xmlns="http://www.w3.org/2000/svg">
<g transform="translate(-134.27 -23.917)" data-name="Group 1093">
<g transform="translate(150.17 79.652)" fill="#444c53" data-name="Group 983">
<path transform="translate(-192.65 -274.84)" d="m202.6 293.36-4.65-7.549a7.272 7.272 0 0 1-1.325 0.1h-2.75v7.449h-1.225v-17.749h4.05a6.778 6.778 0 0 1 2.687 0.55 4.93 4.93 0 0 1 2.1 1.675 4.657 4.657 0 0 1 0.813 2.8 5.814 5.814 0 0 1-0.75 2.937 4.35 4.35 0 0 1-2.325 1.913l4.8 7.874zm-2.587-9.824a4.216 4.216 0 0 0 1.037-2.85 3.881 3.881 0 0 0-0.512-1.951 3.707 3.707 0 0 0-1.463-1.424 4.476 4.476 0 0 0-2.2-0.525h-3v7.95h2.675a4.367 4.367 0 0 0 3.465-1.2z" data-name="Path 247"/>
<path transform="translate(-210.79 -274.84)" d="m237.56 275.62v1.175h-9.724v7.05h8.75v1.175h-8.75v7.175h10.074v1.175h-11.3v-17.75z" data-name="Path 248"/>
<path transform="translate(-227.46 -274.84)" d="m269.46 275.62v1.175h-5.225v16.574h-1.225v-16.574h-5.174v-1.175z" data-name="Path 249"/>
<path transform="translate(-243.85 -273.95)" d="M299.923,286.6H292.1l-2.35,5.874h-1.225l7.5-18.524h.1l7.5,18.524h-1.375Zm-.45-1.15-3.424-8.725-3.5,8.725Z" data-name="Path 250"/>
<path transform="translate(-265.86 -274.84)" d="m330.95 275.62v17.749h-1.225v-17.749z" data-name="Path 251"/>
<path transform="translate(-273.74 -274.84)" d="m345.7 275.62v16.574h9.724v1.175h-10.949v-17.749z" data-name="Path 252"/>
</g>
<path transform="translate(72.896 -39.231)" d="M92.429,63.148,69.747,99.762h23.43v4.663H61.37L84.024,67.811H61.486V63.148Z" fill="#444c53" data-name="Path 253"/>
<path transform="translate(-46.754 -41.915)" d="m228.48 97.782 8.71-19.544 8.71 19.544h5.119l-13.829-31-13.829 31z" fill="#444c53" data-name="Path 254"/>
<path transform="translate(-34.996 -142.69)" d="m241.34 203.22h-31.82l-2.08 4.663h35.98z" fill="#cd9925" data-name="Path 255"/>
<path transform="translate(-158.58 -39.231)" d="M402.82,66.775a11.892,11.892,0,0,0-8.721-3.626H374.755v41.276h4.663V87.874H394.1a12.355,12.355,0,0,0,8.721-21.1Zm-3.282,14.162a7.471,7.471,0,0,1-5.44,2.245h-14.68V67.811H394.1a7.693,7.693,0,0,1,5.44,13.126Z" fill="#444c53" data-name="Path 256"/>
</g>
</svg>
